<svg width="61" height="72" viewBox="0 0 61 72" fill="none" xmlns="http://www.w3.org/2000/svg">
<g clip-path="url(#clip0_1:3)">
<path d="M0.0321655 1.18229L0.0321655 2.35588H5.23556C12.9168 2.38676 16.5406 3.40594 21.5891 6.98847C24.5315 9.08857 29.6729 14.6786 30.757 16.9022C31.7481 19.0023 33.018 23.7584 33.3277 26.5071L33.5445 28.3293L32.7392 29.5028C31.81 30.8926 31.7481 31.325 32.4295 31.85C33.9162 33.1163 39.0267 41.7946 39.5532 43.9565C39.8319 45.2228 38.4382 46.4272 35.7126 47.3229C33.9781 47.8788 33.5135 48.1567 33.6684 48.5273C33.7613 48.7744 33.9162 49.7009 34.0091 50.5966L34.1949 52.1716L33.5445 52.5731C33.0489 52.882 32.956 53.1908 33.0799 53.9629C33.2038 54.7041 33.0489 55.3527 32.4605 56.341L31.6552 57.6999L31.841 59.2749C32.2437 62.8884 31.0977 65.2355 28.2172 66.5635L26.8235 67.2121H20.9387H15.0539L14.5273 68.293C14.2486 68.8798 13.9079 69.9608 13.784 70.6711L13.5672 71.9991H22.2085C32.2746 71.9991 36.425 71.6594 40.2036 70.5785C47.2963 68.5401 52.7475 63.7531 56.4023 56.4027C59.9332 49.2377 61.265 42.227 60.9552 32.4677C60.6146 22.6466 58.5394 15.9139 53.9864 9.95332C50.5485 5.44427 45.376 2.20146 39.6151 0.904335L36.7347 0.255775L18.3989 0.13224L0.0321655 0.00870514L0.0321655 1.18229Z" fill="#E2EFF7"/>
<path d="M1.20912 4.27069C0.279946 4.36334 0.0321655 4.54865 0.0321655 5.04279L0.0321655 5.66046L1.82858 5.44427C4.21347 5.16632 8.61157 5.93842 11.8018 7.17377C16.6335 9.02681 20.6599 12.2387 25.3058 17.8905C28.434 21.751 29.1464 23.2334 29.1464 25.9203V27.588L28.2172 28.669C26.4828 30.6147 26.9164 31.7574 31.2216 36.5753C32.956 38.521 34.102 40.5284 34.102 41.6402C34.102 42.752 33.8852 43.03 32.0888 44.0183L30.8499 44.6977L30.695 47.4773L30.5402 50.2568L29.0535 51.6466C28.2482 52.4187 27.5978 53.2526 27.5978 53.4996C27.5978 53.7776 28.0314 54.3644 28.527 54.8585C29.549 55.8159 29.7039 56.8042 29.0225 57.8852C28.7438 58.2867 28.5889 59.1823 28.6199 60.0162C28.6818 61.1589 28.527 61.6221 27.9385 62.2398C26.6376 63.6296 24.6554 64.0002 18.6777 64.0002L13.3194 63.9693L12.607 64.6796C11.8947 65.39 9.9434 70.3005 9.9434 71.4123C9.9434 71.8447 10.1602 71.9991 10.7177 71.9991H11.4611L11.8018 70.7638C11.9566 70.0843 12.2663 68.9725 12.4212 68.293C12.607 67.6136 13.0716 66.6871 13.5052 66.2238L14.2176 65.3591H20.3812H26.5137L27.8456 64.6487C29.642 63.6913 30.1066 62.5486 30.0136 59.2749L29.9207 56.7116L30.6331 55.7233L31.3145 54.735L30.5092 54.6424C30.0446 54.5806 29.5181 54.3026 29.3322 53.9938L28.9915 53.4379L29.8588 52.7584C30.3234 52.3878 31.0667 51.801 31.4693 51.4613L32.2437 50.8436L31.872 49.0833C31.4384 47.014 31.6242 46.6743 33.5445 46.0566C36.3011 45.1919 37.509 44.5433 37.509 43.9874C37.509 43.0918 34.2569 37.4709 32.0888 34.5678C29.7968 31.5412 29.642 30.7382 30.8809 28.8852L31.7171 27.6807L31.0357 24.3144C29.9517 19.0641 29.2083 17.3964 26.4518 14.1844C22.2085 9.27388 17.6556 6.12373 13.1645 4.98102C10.7177 4.36334 3.81082 3.93096 1.20912 4.27069Z" fill="#E2EFF7"/>
<path d="M1.27105 7.38911L0.18701 7.60529L0.0940927 8.99507L0.00117493 10.3848H5.35943H10.7177L12.9167 11.0643C14.1247 11.4658 15.7972 12.207 16.6335 12.7629C19.7617 14.863 23.2616 20.4839 23.943 24.4988L24.3147 26.5371L23.7881 28.4211C23.5094 29.4402 23.2616 30.6138 23.2616 31.0153C23.2616 31.8183 24.6863 34.1655 25.7394 35.092C27.7216 36.8215 28.7437 39.2304 27.8765 40.0952C27.6907 40.2805 27.5048 42.0409 27.4739 44.388L27.3809 48.3721L26.6995 49.6692C26.3589 50.4104 25.6155 51.6458 25.1199 52.4487L24.1908 53.9003V55.7224V57.5446L23.2616 58.4093C22.7351 58.9035 21.8059 59.4594 21.1864 59.6756C19.9166 60.0771 17.2219 59.8918 15.3636 59.2741L14.1247 58.8726L13.722 57.6372C13.2265 56.1857 13.4123 53.6532 14.1866 50.9045L14.6822 49.0515L14.3105 47.6617C13.8149 45.7469 12.8548 44.5116 11.9256 44.5116C10.2221 44.5116 5.29749 47.6308 1.79759 50.9354L0.0321475 52.634L0.0321475 54.1782L0.0321475 55.7224L2.47898 55.5371C5.63819 55.2901 7.58946 54.7959 8.27086 54.0547C9.23101 53.0047 8.45669 52.6958 5.79305 53.1282C3.03649 53.5914 2.20023 53.4061 2.20023 52.387C2.20023 51.4296 3.77983 50.1633 6.90806 48.5574C10.2531 46.8588 12.0185 46.8588 12.8858 48.5574C14.0937 50.8428 13.2574 54.6106 9.32393 64.4626C7.7753 68.2922 6.53639 71.5659 6.53639 71.7203C6.53639 71.8747 6.81515 71.9983 7.15584 71.9983C7.58946 71.9983 7.83724 71.6585 8.08502 70.6703C8.98323 67.0877 10.6248 63.5978 11.7398 62.8257L12.576 62.2698L18.7706 62.1154L24.9961 61.961L25.8323 61.4051L26.6686 60.88V59.3976C26.6686 58.5946 26.8854 57.6372 27.1332 57.2666L27.5978 56.6181L26.6686 55.6298C26.0491 54.9812 25.7394 54.3018 25.7394 53.715C25.7394 52.5414 26.7305 50.9045 27.9385 50.0398L28.8367 49.4221V46.8588V44.2954L29.4561 43.4924C29.7968 43.06 30.5711 42.5041 31.1596 42.3188C31.7791 42.0717 32.2436 41.7011 32.2436 41.4232C32.2436 41.1452 31.3454 39.8172 30.2304 38.4892C29.1154 37.1303 27.5668 35.1846 26.7925 34.1655L25.3677 32.3124L25.4916 30.552C25.5845 29.2858 25.8323 28.5446 26.4518 27.7416C28.0314 25.6415 27.4739 23.6032 24.0979 19.4338C18.9254 13.01 14.2176 9.58186 8.64253 8.09943C5.97888 7.41999 2.81968 7.11115 1.27105 7.38911Z" fill="#E2EFF7"/>
<path d="M1.02327 12.3005L0.0321475 12.4241L0.0321475 13.505L0.0321475 14.555L0.89938 14.3389C1.36397 14.2153 3.74886 14.0918 6.22667 14.0918H10.7177L12.2973 14.8021C14.4654 15.7904 19.6688 21.3186 20.3811 23.3879C21.0006 25.2409 20.7528 26.8777 19.5449 28.669C18.8015 29.8426 18.6157 30.3676 18.7706 31.0779C18.8635 31.5721 19.0183 32.4368 19.1113 32.9927L19.2971 33.9501L18.5538 34.4134C17.5007 35.0929 16.3237 34.7531 15.0848 33.3634C13.753 31.9118 13.4743 30.5838 14.0937 28.7617C14.3725 27.9896 14.5893 27.0939 14.5893 26.7542C14.5893 25.7041 12.8548 22.4613 11.8637 21.5966C10.5938 20.5156 7.34168 19.8053 3.77983 19.8053C0.651599 19.8053 0.0321475 19.9597 0.0321475 20.7318L0.0321475 21.2569L2.75774 21.4422C5.97889 21.6892 9.60268 22.3996 11.0584 23.079C12.576 23.7893 12.8238 24.9012 12.576 29.7808L12.3592 33.8884L13.3813 34.7531L14.4034 35.6179L16.2928 35.4635C18.6776 35.2473 20.1334 35.8958 22.2705 38.1195C23.4784 39.4166 23.881 40.096 24.1598 41.3932C24.5934 43.4933 24.3766 44.7904 23.0448 47.3229C22.2395 48.9288 21.9607 49.8862 21.8369 51.6466C21.682 54.0865 20.7218 56.0939 19.1732 57.2675L18.337 57.8852L17.5626 57.391C17.0671 57.0513 16.6954 56.4645 16.5715 55.7542C16.2308 53.9938 16.6644 50.1951 17.5317 47.1376C17.9343 45.5934 18.306 43.6477 18.306 42.7829V41.177L17.4697 40.6211C16.3237 39.8799 14.4963 39.9107 12.669 40.7446C10.2531 41.8564 8.79739 41.5785 7.89919 39.8181C7.52751 39.1078 7.34168 37.5018 7.18682 33.456L7.00098 28.0822L6.13375 27.341L5.26652 26.5998L3.50108 26.6307C0.713545 26.6924 0.18701 26.9086 0.0940927 28.1749L0.00117493 29.2249L1.333 29.1323C2.38606 29.0396 2.97454 29.2249 4.08956 29.9352C6.00986 31.1706 6.44347 32.2206 6.69126 36.4826L6.90806 40.0343L5.7311 42.3506C4.89484 44.0183 3.96567 45.2845 2.29315 46.8905C1.05424 48.095 0.0321475 49.2686 0.0321475 49.4539C0.0321475 49.6392 1.20911 48.8362 2.63385 47.6935C7.80627 43.4933 11.8017 41.8564 13.722 43.0918C14.8061 43.8021 16.1379 46.3655 16.3547 48.1567C16.4476 49.0833 16.3547 50.2877 16.045 51.3378C15.3326 53.8703 15.1468 55.2292 15.3636 56.3719L15.5804 57.4219L16.9122 57.7616C18.8945 58.2558 20.1953 58.1631 21.2793 57.5146L22.2705 56.9278L22.3944 54.9512L22.5182 52.9746L23.881 50.8128L25.2438 48.6818L25.4606 44.4816C25.5845 42.1653 25.8323 40.0034 26.0182 39.6328C26.204 39.2931 26.3589 38.9225 26.3589 38.8298C26.3589 38.7372 25.5226 37.718 24.5005 36.5753C23.4784 35.4326 22.3634 33.9193 22.0227 33.2089C21.3413 31.8192 21.2174 29.6882 21.7749 28.669C22.3014 27.6807 22.1776 24.5306 21.5581 22.7393C20.8457 20.6392 19.0803 17.7979 17.4078 16.0066C14.7751 13.1653 11.3681 12.0535 5.60721 12.1461C3.65594 12.177 1.58078 12.2388 1.02327 12.3005Z" fill="#E2EFF7"/>
<path d="M2.97456 15.9757C2.479 16.0375 1.5808 16.1919 1.05426 16.2845L0.0321655 16.439L0.0321655 17.2728L0.0321655 18.1067L3.37721 18.014C8.61157 17.8596 12.4522 18.9714 14.0937 21.1024C15.2707 22.6775 16.4476 25.3953 16.4476 26.6307C16.4476 27.2174 16.2308 28.3602 15.9521 29.1322L15.4875 30.5529L15.9521 31.5103C16.7264 32.9619 16.9122 32.8383 16.9122 30.9544V29.2249L17.9343 27.6498C18.4609 26.7851 18.9254 25.7659 18.9254 25.3953C18.9254 24.1599 18.0892 22.7393 16.4167 21.0098C15.4875 20.0833 14.2486 18.7861 13.6601 18.1376C12.1424 16.4081 10.9345 16.0066 7.15586 15.9139C5.35945 15.883 3.5011 15.9139 2.97456 15.9757Z" fill="#E2EFF7"/>
<path d="M0.0321655 24.0364L0.0321655 24.9629L2.75775 24.8394L5.45237 24.7158L6.53641 25.2718C7.21781 25.6115 7.86823 26.3218 8.33282 27.2174L9.01422 28.5763L9.04519 32.3133C9.04519 36.39 9.35492 38.7989 9.91242 39.3548C10.1602 39.6019 10.5009 39.6019 11.2752 39.2931C11.8018 39.0769 13.0097 38.6754 13.8769 38.3974L15.5185 37.9342L16.8193 38.3048C17.5317 38.521 18.5847 39.1695 19.1423 39.7254L20.1643 40.7446V42.7212C20.1643 43.8639 19.8546 45.8096 19.39 47.4464C18.6467 50.0407 17.9963 55.3218 18.3989 55.3218C18.9564 55.3218 19.7927 53.0673 19.9475 51.0907C20.0714 49.3612 20.3812 48.4038 21.2794 46.6743C23.1377 43.0609 22.766 40.6519 19.9785 38.4901C18.4299 37.3474 18.3989 37.3165 15.9211 37.4091C14.8371 37.44 13.9389 37.2547 13.0716 36.8223C10.7487 35.6179 10.2531 34.1663 10.6248 29.8426C10.9345 26.3218 10.7797 24.9011 10.0053 24.5923C8.82838 24.1599 5.11167 23.5114 2.63386 23.3261L0.0321655 23.1099L0.0321655 24.0364Z" fill="#E2EFF7"/>
<path d="M0.713562 31.85C-0.339506 33.2398 -0.184643 34.5987 1.14718 35.8958C2.60289 37.2856 3.12942 38.3357 3.12942 39.849C3.12942 41.177 2.23122 42.505 0.837452 43.2462L0.0321649 43.6786L0.0321649 45.0992L0.0631375 46.5199L1.70468 44.7595C2.63386 43.8021 3.74888 42.2579 4.18249 41.3314L5.01875 39.6637L4.80194 36.4517C4.55416 32.8074 4.3993 32.3751 3.03651 31.5412C1.73566 30.7382 1.51885 30.7691 0.713562 31.85Z" fill="#E2EFF7"/>
<path d="M0.0321655 39.3857C0.0321655 41.424 0.341891 41.9491 0.961343 40.8372C1.42593 39.9107 1.33301 38.9842 0.651617 38.1194L0.0321655 37.3165L0.0321655 39.3857Z" fill="#E2EFF7"/>
<path d="M8.11599 49.9789L6.44347 50.8436L7.93016 51.0289C9.63365 51.2142 10.5628 52.079 10.5628 53.5305C10.5628 55.6306 7.71335 57.0204 2.72676 57.391L0.00117493 57.5763L0.0940927 58.5337L0.18701 59.4911L1.333 59.7691L2.47898 60.047L4.61609 59.0896C7.06293 57.9469 7.93016 57.8543 8.39475 58.6881C8.79739 59.4294 8.58058 60.047 6.4125 64.2781C4.89484 67.2121 3.43913 70.8564 3.43913 71.6903C3.43913 72.2153 4.36831 72.03 4.58512 71.4741C4.67804 71.1652 5.97888 67.7989 7.49654 63.9693C10.6557 55.9086 11.554 52.8511 11.4301 50.7819L11.3371 49.2994L10.5628 49.2068C10.1292 49.1759 9.04517 49.5156 8.11599 49.9789Z" fill="#E2EFF7"/>
<path d="M4.52319 61.2206C3.59401 61.6839 2.85067 61.8074 1.67371 61.6839L0.0321655 61.5295L0.0321655 62.1163C0.0321655 62.456 0.310919 63.1663 0.651617 63.7222C1.48788 65.112 1.48788 68.046 0.651617 69.6828C-0.122697 71.227 -0.15367 71.9991 0.620645 71.9991C1.05426 71.9991 1.42593 71.3814 2.20025 69.1269C2.75775 67.5827 3.87277 64.9885 4.74 63.4134C5.57626 61.8692 6.16474 60.5721 6.00988 60.6029C5.88599 60.6029 5.20459 60.8809 4.52319 61.2206Z" fill="#E2EFF7"/>
</g>
<defs>
<clipPath id="clip0_1:3">
<rect width="61" height="72" fill="white"/>
</clipPath>
</defs>
</svg>
