<?xml version="1.0" encoding="UTF-8" standalone="no"?>
<!DOCTYPE svg PUBLIC "-//W3C//DTD SVG 20010904//EN" "http://www.w3.org/TR/2001/REC-SVG-20010904/DTD/svg10.dtd">
<svg version="1.0" xmlns="http://www.w3.org/2000/svg" width="196.948333pt" height="233.131053pt" viewBox="0 0 196.948333 233.131053" preserveAspectRatio="xMidYMid meet">
<metadata>
Created by Potrace Professional 1.0m
</metadata>
<g transform="translate(0.103831,233.128216) rotate(-360.00) scale(0.100000,-0.100000)" fill="#111" stroke="none">
<path d="M0 2293 l0 -38 168 0 c248 -1 365 -34 528 -150 95 -68 261 -249 296 -321 32 -68 73 -222 83 -311 l7 -59 -26 -38 c-30 -45 -32 -59 -10 -76 48 -41 213 -322 230 -392 9 -41 -36 -80 -124 -109 -56 -18 -71 -27 -66 -39 3 -8 8 -38 11 -67 l6 -51 -21 -13 c-16 -10 -19 -20 -15 -45 4 -24 -1 -45 -20 -77 l-26 -44 6 -51 c13 -117 -24 -193 -117 -236 l-45 -21 -190 0 -190 0 -17 -35 c-9 -19 -20 -54 -24 -77 l-7 -43 279 0 c325 0 459 11 581 46 229 66 405 221 523 459 114 232 157 459 147 775 -11 318 -78 536 -225 729 -111 146 -278 251 -464 293 l-93 21 -592 4 -593 4 0 -38z"/>
<path d="M38 2193 c-30 -3 -38 -9 -38 -25 l0 -20 58 7 c77 9 219 -16 322 -56 156 -60 286 -164 436 -347 101 -125 124 -173 124 -260 l0 -54 -30 -35 c-56 -63 -42 -100 97 -256 56 -63 93 -128 93 -164 0 -36 -7 -45 -65 -77 l-40 -22 -5 -90 -5 -90 -48 -45 c-26 -25 -47 -52 -47 -60 0 -9 14 -28 30 -44 33 -31 38 -63 16 -98 -9 -13 -14 -42 -13 -69 2 -37 -3 -52 -22 -72 -42 -45 -106 -57 -299 -57 l-173 1 -23 -23 c-23 -23 -86 -182 -86 -218 0 -14 7 -19 25 -19 l24 0 11 40 c5 22 15 58 20 80 6 22 21 52 35 67 l23 28 199 0 198 0 43 23 c58 31 73 68 70 174 l-3 83 23 32 22 32 -26 3 c-15 2 -32 11 -38 21 l-11 18 28 22 c15 12 39 31 52 42 l25 20 -12 57 c-14 67 -8 78 54 98 89 28 128 49 128 67 0 29 -105 211 -175 305 -74 98 -79 124 -39 184 l27 39 -22 109 c-35 170 -59 224 -148 328 -137 159 -284 261 -429 298 -79 20 -302 34 -386 23z"/>
<path d="M40 2092 l-35 -7 -3 -45 -3 -45 173 0 173 0 71 -22 c39 -13 93 -37 120 -55 101 -68 214 -250 236 -380 l12 -66 -17 -61 c-9 -33 -17 -71 -17 -84 0 -26 46 -102 80 -132 64 -56 97 -134 69 -162 -6 -6 -12 -63 -13 -139 l-3 -129 -22 -42 c-11 -24 -35 -64 -51 -90 l-30 -47 0 -59 0 -59 -30 -28 c-17 -16 -47 -34 -67 -41 -41 -13 -128 -7 -188 13 l-40 13 -13 40 c-16 47 -10 129 15 218 l16 60 -12 45 c-16 62 -47 102 -77 102 -55 0 -214 -101 -327 -208 l-57 -55 0 -50 0 -50 79 6 c102 8 165 24 187 48 31 34 6 44 -80 30 -89 -15 -116 -9 -116 24 0 31 51 72 152 124 108 55 165 55 193 0 39 -74 12 -196 -115 -515 -50 -124 -90 -230 -90 -235 0 -5 9 -9 20 -9 14 0 22 11 30 43 29 116 82 229 118 254 l27 18 200 5 201 5 27 18 27 17 0 48 c0 26 7 57 15 69 l15 21 -30 32 c-20 21 -30 43 -30 62 0 38 32 91 71 119 l29 20 0 83 0 83 20 26 c11 14 36 32 55 38 20 8 35 20 35 29 0 9 -29 52 -65 95 -36 44 -86 107 -111 140 l-46 60 4 57 c3 41 11 65 31 91 51 68 33 134 -76 269 -167 208 -319 319 -499 367 -86 22 -188 32 -238 23z"/>
<path d="M32 1933 l-32 -4 0 -35 0 -34 28 7 c15 4 92 8 172 8 l145 0 51 -23 c70 -32 238 -211 261 -278 20 -60 12 -113 -27 -171 -24 -38 -30 -55 -25 -78 3 -16 8 -44 11 -62 l6 -31 -24 -15 c-34 -22 -72 -11 -112 34 -43 47 -52 90 -32 149 9 25 16 54 16 65 0 34 -56 139 -88 167 -41 35 -146 58 -261 58 -101 0 -121 -5 -121 -30 l0 -17 88 -6 c104 -8 221 -31 268 -53 49 -23 57 -59 49 -217 l-7 -133 33 -28 33 -28 61 5 c77 7 124 -14 193 -86 39 -42 52 -64 61 -106 14 -68 7 -110 -36 -192 -26 -52 -35 -83 -39 -140 -5 -79 -36 -144 -86 -182 l-27 -20 -25 16 c-16 11 -28 30 -32 53 -11 57 3 180 31 279 13 50 25 113 25 141 l0 52 -27 18 c-37 24 -96 23 -155 -4 -78 -36 -125 -27 -154 30 -12 23 -18 75 -23 206 l-6 174 -28 24 -28 24 -57 -1 c-90 -2 -107 -9 -110 -50 l-3 -34 43 3 c34 3 53 -3 89 -26 62 -40 76 -74 84 -212 l7 -115 -38 -75 c-27 -54 -57 -95 -111 -147 -40 -39 -73 -77 -73 -83 0 -6 38 20 84 57 167 136 296 189 358 149 35 -23 78 -106 85 -164 3 -30 0 -69 -10 -103 -23 -82 -29 -126 -22 -163 l7 -34 43 -11 c64 -16 106 -13 141 8 l32 19 4 64 4 64 44 70 44 69 7 136 c4 75 12 145 18 157 6 11 11 23 11 26 0 3 -27 36 -60 73 -33 37 -69 86 -80 109 -22 45 -26 114 -8 147 17 32 13 134 -7 192 -23 68 -80 160 -134 218 -85 92 -195 128 -381 125 -63 -1 -130 -3 -148 -5z"/>
<path d="M95 1814 c-16 -2 -45 -7 -62 -10 l-33 -5 0 -27 0 -27 108 3 c169 5 293 -31 346 -100 38 -51 76 -139 76 -179 0 -19 -7 -56 -16 -81 l-15 -46 15 -31 c25 -47 31 -43 31 18 l0 56 33 51 c17 28 32 61 32 73 0 40 -27 86 -81 142 -30 30 -70 72 -89 93 -49 56 -88 69 -210 72 -58 1 -118 0 -135 -2z"/>
<path d="M0 1553 l0 -30 88 4 87 4 35 -18 c22 -11 43 -34 58 -63 l22 -44 1 -121 c0 -132 10 -210 28 -228 8 -8 19 -8 44 2 17 7 56 20 84 29 l53 15 42 -12 c23 -7 57 -28 75 -46 l33 -33 0 -64 c0 -37 -10 -100 -25 -153 -24 -84 -45 -255 -32 -255 18 0 45 73 50 137 4 56 14 87 43 143 60 117 48 195 -42 265 -50 37 -51 38 -131 35 -35 -1 -64 5 -92 19 -75 39 -91 86 -79 226 10 114 5 160 -20 170 -38 14 -158 35 -238 41 l-84 7 0 -30z"/>
<path d="M22 1300 c-34 -45 -29 -89 14 -131 47 -45 64 -79 64 -128 0 -43 -29 -86 -74 -110 l-26 -14 0 -46 1 -46 53 57 c30 31 66 81 80 111 l27 54 -7 104 c-8 118 -13 132 -57 159 -42 26 -49 25 -75 -10z"/>
<path d="M0 1056 c0 -66 10 -83 30 -47 15 30 12 60 -10 88 l-20 26 0 -67z"/>
<path d="M261 713 l-54 -28 48 -6 c55 -6 85 -34 85 -81 0 -68 -92 -113 -253 -125 l-88 -6 3 -31 3 -31 37 -9 37 -9 69 31 c79 37 107 40 122 13 13 -24 6 -44 -64 -181 -49 -95 -96 -213 -96 -240 0 -17 30 -11 37 7 3 10 45 119 94 243 102 261 131 360 127 427 l-3 48 -25 3 c-14 1 -49 -10 -79 -25z"/>
<path d="M145 349 c-30 -15 -54 -19 -92 -15 l-53 5 0 -19 c0 -11 9 -34 20 -52 27 -45 27 -140 0 -193 -25 -50 -26 -75 -1 -75 14 0 26 20 51 93 18 50 54 134 82 185 27 50 46 92 41 91 -4 0 -26 -9 -48 -20z"/>
</g>
</svg>