<?xml version="1.0" encoding="UTF-8" standalone="no"?>
<!DOCTYPE svg PUBLIC "-//W3C//DTD SVG 1.1//EN" "http://www.w3.org/Graphics/SVG/1.1/DTD/svg11.dtd">
<svg width="100%" height="100%" viewBox="0 0 994 400" version="1.1" xmlns="http://www.w3.org/2000/svg" xmlns:xlink="http://www.w3.org/1999/xlink" xml:space="preserve" xmlns:serif="http://www.serif.com/" style="fill-rule:evenodd;clip-rule:evenodd;stroke-linejoin:round;stroke-miterlimit:2;">
    <g transform="matrix(0.924754,0,0,0.924754,-115.058,11.6821)">
        <path d="M339.268,202.215L124.42,202.215L339.268,417.062L339.268,202.215Z" style="fill:rgb(255,199,0);"/>
    </g>
    <g transform="matrix(0.924754,0,0,0.924754,480.985,11.6821)">
        <path d="M339.268,202.215L124.42,202.215L339.268,417.062L339.268,202.215Z" style="fill:rgb(255,199,0);"/>
    </g>
    <g transform="matrix(1.69875e-16,0.924754,-0.924754,1.69875e-16,1180.41,-115.058)">
        <path d="M339.268,202.215L124.42,202.215L339.268,417.062L339.268,202.215Z" style="fill:rgb(255,199,0);"/>
    </g>
    <g transform="matrix(5.66249e-17,0.924754,-0.924754,5.66249e-17,783.043,-115.058)">
        <path d="M339.268,202.215L124.42,202.215L339.268,417.062L339.268,202.215Z" style="fill:rgb(38,38,38);"/>
    </g>
    <g transform="matrix(5.66249e-17,-0.924754,0.924754,5.66249e-17,210.363,512.421)">
        <path d="M339.268,202.215L124.42,202.215L339.268,417.062L339.268,202.215Z" style="fill:rgb(38,38,38);"/>
    </g>
    <g transform="matrix(5.66249e-17,-0.924754,0.924754,5.66249e-17,11.6821,313.739)">
        <path d="M339.268,202.215L124.42,202.215L339.268,417.062L339.268,202.215Z" style="fill:rgb(0,14,119);"/>
    </g>
    <g transform="matrix(5.66249e-17,-0.924754,0.924754,5.66249e-17,607.726,512.421)">
        <path d="M339.268,202.215L124.42,202.215L339.268,417.062L339.268,202.215Z" style="fill:rgb(0,14,119);"/>
    </g>
    <g transform="matrix(5.66249e-17,0.924754,-0.924754,5.66249e-17,584.362,-115.058)">
        <path d="M339.268,202.215L124.42,202.215L339.268,417.062L339.268,202.215Z"/>
    </g>
    <g transform="matrix(5.66249e-17,0.924754,-0.924754,5.66249e-17,1180.41,83.623)">
        <path d="M339.268,202.215L124.42,202.215L339.268,417.062L339.268,202.215Z"/>
    </g>
    <circle cx="298.022" cy="298.022" r="99.341" style="fill:rgb(255,50,0);"/>
    <g transform="matrix(1,0,0,1,298.022,-198.681)">
        <circle cx="298.022" cy="298.022" r="99.341" style="fill:rgb(0,255,50);"/>
    </g>
    <g transform="matrix(1,0,0,1,298.022,1.97816)">
        <circle cx="298.022" cy="298.022" r="99.341" style="fill:rgb(172,0,255);"/>
    </g>
    <g transform="matrix(-1,-1.22465e-16,1.22465e-16,-1,2.84217e-14,0)">
        <path d="M0,-0L-198.681,-0C-198.681,-109.655 -109.655,-198.681 0,-198.681L0,-0Z"/>
    </g>
    <g transform="matrix(6.12323e-17,-1,1,6.12323e-17,794.725,0)">
        <path d="M0,-0L-198.681,-0C-198.681,-109.655 -109.655,-198.681 0,-198.681L0,-0Z" style="fill:rgb(0,255,198);"/>
    </g>
</svg>
